# Blender 4.0.0
# www.blender.org
mtllib cornellbox.mtl
o BackLeftWall
v -5.000000 -0.000000 -5.000000
v 5.000000 -0.000000 -5.000000
v -5.000000 10.000000 -5.000002
v 5.000000 10.000000 -5.000002
vn -0.0000 -0.0000 1.0000
vt 1.000000 0.000000
vt 0.000000 1.000000
vt 0.000000 0.000000
vt 1.000000 1.000000
s 0
usemtl Plaster
f 2/1/1 3/2/1 1/3/1
f 2/1/1 4/4/1 3/2/1
o BackRightWall
v 5.000000 -0.000000 -5.000000
v 15.000000 -0.000000 -5.000000
v 5.000000 10.000000 -5.000002
v 15.000000 10.000000 -5.000002
vn -0.0000 -0.0000 1.0000
vt 1.000000 0.000000
vt 0.000000 1.000000
vt 0.000000 0.000000
vt 1.000000 1.000000
s 0
usemtl Plaster
f 6/5/2 7/6/2 5/7/2
f 6/5/2 8/8/2 7/6/2
o SmoothRockCube
v 1.000000 2.037627 0.999000
v 1.000000 0.037627 0.999000
v 1.000000 2.037627 2.999000
v 1.000000 0.037627 2.999000
v -1.000000 2.037627 0.999000
v -1.000000 0.037627 0.999000
v -1.000000 2.037627 2.999000
v -1.000000 0.037627 2.999000
vn -0.0000 1.0000 -0.0000
vn -0.0000 -0.0000 1.0000
vn -1.0000 -0.0000 -0.0000
vn -0.0000 -1.0000 -0.0000
vn 1.0000 -0.0000 -0.0000
vn -0.0000 -0.0000 -1.0000
vt 0.875000 0.500000
vt 0.625000 0.750000
vt 0.625000 0.500000
vt 0.375000 1.000000
vt 0.375000 0.750000
vt 0.625000 0.000000
vt 0.375000 0.250000
vt 0.375000 0.000000
vt 0.375000 0.500000
vt 0.125000 0.750000
vt 0.125000 0.500000
vt 0.625000 0.250000
vt 0.875000 0.750000
vt 0.625000 1.000000
s 0
usemtl SmoothRock
f 13/9/3 11/10/3 9/11/3
f 11/10/4 16/12/4 12/13/4
f 15/14/5 14/15/5 16/16/5
f 10/17/6 16/18/6 14/19/6
f 9/11/7 12/13/7 10/17/7
f 13/20/8 10/17/8 14/15/8
f 13/9/3 15/21/3 11/10/3
f 11/10/4 15/22/4 16/12/4
f 15/14/5 13/20/5 14/15/5
f 10/17/6 12/13/6 16/18/6
f 9/11/7 11/10/7 12/13/7
f 13/20/8 9/11/8 10/17/8
o SmoothMetalCube
v 12.843737 8.829256 0.998999
v 12.843737 6.829256 0.998999
v 12.843737 8.829256 2.998999
v 12.843737 6.829257 2.999000
v 10.843737 8.829256 0.998999
v 10.843737 6.829256 0.998999
v 10.843737 8.829256 2.998999
v 10.843737 6.829257 2.999000
vn -0.0000 1.0000 -0.0000
vn -0.0000 -0.0000 1.0000
vn -1.0000 -0.0000 -0.0000
vn -0.0000 -1.0000 -0.0000
vn 1.0000 -0.0000 -0.0000
vn -0.0000 -0.0000 -1.0000
vt 0.875000 0.500000
vt 0.625000 0.750000
vt 0.625000 0.500000
vt 0.375000 1.000000
vt 0.375000 0.750000
vt 0.625000 0.000000
vt 0.375000 0.250000
vt 0.375000 0.000000
vt 0.375000 0.500000
vt 0.125000 0.750000
vt 0.125000 0.500000
vt 0.625000 0.250000
vt 0.875000 0.750000
vt 0.625000 1.000000
s 0
usemtl SmoothMetal
f 21/23/9 19/24/9 17/25/9
f 19/24/10 24/26/10 20/27/10
f 23/28/11 22/29/11 24/30/11
f 18/31/12 24/32/12 22/33/12
f 17/25/13 20/27/13 18/31/13
f 21/34/14 18/31/14 22/29/14
f 21/23/9 23/35/9 19/24/9
f 19/24/10 23/36/10 24/26/10
f 23/28/11 21/34/11 22/29/11
f 18/31/12 20/27/12 24/32/12
f 17/25/13 19/24/13 20/27/13
f 21/34/14 17/25/14 18/31/14
o LeatherCube
v 11.709176 5.404451 -0.088975
v 11.709176 3.404451 -0.088975
v 11.709176 5.404451 1.911025
v 11.709176 3.404451 1.911025
v 6.967574 5.404451 -0.088975
v 6.967574 3.404451 -0.088975
v 6.967574 5.404451 1.911025
v 6.967574 3.404451 1.911025
vn -0.0000 1.0000 -0.0000
vn -0.0000 -0.0000 1.0000
vn -1.0000 -0.0000 -0.0000
vn -0.0000 -1.0000 -0.0000
vn 1.0000 -0.0000 -0.0000
vn -0.0000 -0.0000 -1.0000
vt 0.875000 0.500000
vt 0.625000 0.750000
vt 0.625000 0.500000
vt 0.375000 1.000000
vt 0.375000 0.750000
vt 0.625000 0.000000
vt 0.375000 0.250000
vt 0.375000 0.000000
vt 0.375000 0.500000
vt 0.125000 0.750000
vt 0.125000 0.500000
vt 0.625000 0.250000
vt 0.875000 0.750000
vt 0.625000 1.000000
s 0
usemtl Leather
f 29/37/15 27/38/15 25/39/15
f 27/38/16 32/40/16 28/41/16
f 31/42/17 30/43/17 32/44/17
f 26/45/18 32/46/18 30/47/18
f 25/39/19 28/41/19 26/45/19
f 29/48/20 26/45/20 30/43/20
f 29/37/15 31/49/15 27/38/15
f 27/38/16 31/50/16 32/40/16
f 31/42/17 29/48/17 30/43/17
f 26/45/18 28/41/18 32/46/18
f 25/39/19 27/38/19 28/41/19
f 29/48/20 25/39/20 26/45/20
o LeftCeiling
v -5.000000 10.000000 -5.000002
v 5.000000 10.000000 -5.000002
v -5.000000 10.000000 4.999998
v 5.000000 10.000000 4.999998
vn -0.0000 -1.0000 -0.0000
vt 1.000000 0.000000
vt 0.000000 1.000000
vt 0.000000 0.000000
vt 1.000000 1.000000
s 0
usemtl Ceiling
f 34/51/21 35/52/21 33/53/21
f 34/51/21 36/54/21 35/52/21
o RightCeiling
v 5.000000 10.000000 -5.000002
v 15.000000 10.000000 -5.000002
v 5.000000 10.000000 4.999998
v 15.000000 10.000000 4.999998
vn -0.0000 -1.0000 -0.0000
vt 1.000000 0.000000
vt 0.000000 1.000000
vt 0.000000 0.000000
vt 1.000000 1.000000
s 0
usemtl Ceiling
f 38/55/22 39/56/22 37/57/22
f 38/55/22 40/58/22 39/56/22
o LeftFloor
v -5.000000 0.000000 5.000000
v 5.000000 0.000000 5.000000
v -5.000000 -0.000000 -5.000000
v 5.000000 -0.000000 -5.000000
vn -0.0000 1.0000 -0.0000
vt 1.000000 0.000000
vt 0.000000 1.000000
vt 0.000000 0.000000
vt 1.000000 1.000000
s 0
usemtl Floor
f 42/59/23 43/60/23 41/61/23
f 42/59/23 44/62/23 43/60/23
o RightFloor
v 5.000000 0.000000 5.000000
v 15.000000 0.000000 5.000000
v 5.000000 -0.000000 -5.000000
v 15.000000 -0.000000 -5.000000
vn -0.0000 1.0000 -0.0000
vt 1.000000 0.000000
vt 0.000000 1.000000
vt 0.000000 0.000000
vt 1.000000 1.000000
s 0
usemtl Floor
f 46/63/24 47/64/24 45/65/24
f 46/63/24 48/66/24 47/64/24
o WoodCube
v 4.216054 3.369739 -3.288880
v 4.216054 0.043373 -3.288880
v 3.562152 3.369739 -1.398797
v 3.562152 0.043373 -1.398797
v 2.325971 3.369739 -3.942781
v 2.325971 0.043373 -3.942781
v 1.672069 3.369739 -2.052699
v 1.672069 0.043373 -2.052699
vn -0.0000 1.0000 -0.0000
vn -0.3270 -0.0000 0.9450
vn -0.9450 -0.0000 -0.3270
vn -0.0000 -1.0000 -0.0000
vn 0.9450 -0.0000 0.3270
vn 0.3270 -0.0000 -0.9450
vt 0.875000 0.500000
vt 0.625000 0.750000
vt 0.625000 0.500000
vt 0.375000 1.000000
vt 0.375000 0.750000
vt 0.625000 0.000000
vt 0.375000 0.250000
vt 0.375000 0.000000
vt 0.375000 0.500000
vt 0.125000 0.750000
vt 0.125000 0.500000
vt 0.625000 0.250000
vt 0.875000 0.750000
vt 0.625000 1.000000
s 0
usemtl Wood
f 53/67/25 51/68/25 49/69/25
f 51/68/26 56/70/26 52/71/26
f 55/72/27 54/73/27 56/74/27
f 50/75/28 56/76/28 54/77/28
f 49/69/29 52/71/29 50/75/29
f 53/78/30 50/75/30 54/73/30
f 53/67/25 55/79/25 51/68/25
f 51/68/26 55/80/26 56/70/26
f 55/72/27 53/78/27 54/73/27
f 50/75/28 52/71/28 56/76/28
f 49/69/29 51/68/29 52/71/29
f 53/78/30 49/69/30 50/75/30
o RoughRockCube
v 8.566366 3.415964 -0.601656
v 8.531075 0.089931 -0.632836
v 9.549732 3.389205 1.139688
v 9.514441 0.063172 1.108507
v 6.824947 3.425221 0.381896
v 6.789655 0.099188 0.350716
v 7.808313 3.398463 2.123239
v 7.773021 0.072430 2.092059
vn 0.0106 0.9999 0.0094
vn 0.4917 -0.0134 0.8707
vn -0.8707 0.0046 0.4918
vn -0.0106 -0.9999 -0.0094
vn 0.8707 -0.0046 -0.4918
vn -0.4917 0.0134 -0.8707
vt 0.875000 0.500000
vt 0.625000 0.750000
vt 0.625000 0.500000
vt 0.375000 1.000000
vt 0.375000 0.750000
vt 0.625000 0.000000
vt 0.375000 0.250000
vt 0.375000 0.000000
vt 0.375000 0.500000
vt 0.125000 0.750000
vt 0.125000 0.500000
vt 0.625000 0.250000
vt 0.875000 0.750000
vt 0.625000 1.000000
s 0
usemtl RoughRock
f 61/81/31 59/82/31 57/83/31
f 59/82/32 64/84/32 60/85/32
f 63/86/33 62/87/33 64/88/33
f 58/89/34 64/90/34 62/91/34
f 57/83/35 60/85/35 58/89/35
f 61/92/36 58/89/36 62/87/36
f 61/81/31 63/93/31 59/82/31
f 59/82/32 63/94/32 64/84/32
f 63/86/33 61/92/33 62/87/33
f 58/89/34 60/85/34 64/90/34
f 57/83/35 59/82/35 60/85/35
f 61/92/36 57/83/36 58/89/36
o LeftWall
v -5.000000 10.000000 4.999998
v -5.000000 0.000000 5.000000
v -5.000000 10.000000 -5.000002
v -5.000000 -0.000000 -5.000000
vn 1.0000 -0.0000 -0.0000
vt 1.000000 0.000000
vt 0.000000 1.000000
vt 0.000000 0.000000
vt 1.000000 1.000000
s 0
usemtl Plaster
f 66/95/37 67/96/37 65/97/37
f 66/95/37 68/98/37 67/96/37
o Light
v -4.500000 9.990000 -2.500001
v -2.500000 9.990000 -2.500001
v -4.500000 9.990000 -4.500001
v -2.500000 9.990000 -4.500001
vn -0.0000 1.0000 -0.0000
vt 1.000000 0.000000
vt 0.000000 1.000000
vt 0.000000 0.000000
vt 1.000000 1.000000
s 0
usemtl Light
f 70/99/38 71/100/38 69/101/38
f 70/99/38 72/102/38 71/100/38
o Light.001
v 2.500000 9.990000 4.499999
v 4.500000 9.990000 4.499999
v 2.500000 9.990000 2.499999
v 4.500000 9.990000 2.499999
vn -0.0000 1.0000 -0.0000
vt 1.000000 0.000000
vt 0.000000 1.000000
vt 0.000000 0.000000
vt 1.000000 1.000000
s 0
usemtl Light
f 74/103/39 75/104/39 73/105/39
f 74/103/39 76/106/39 75/104/39
o Light.002
v 11.091049 6.807047 2.724615
v 12.571457 6.807047 2.724615
v 11.091049 6.807047 1.244205
v 12.571457 6.807047 1.244205
vn -0.0000 1.0000 -0.0000
vt 1.000000 0.000000
vt 0.000000 1.000000
vt 0.000000 0.000000
vt 1.000000 1.000000
s 0
usemtl Light
f 78/107/40 79/108/40 77/109/40
f 78/107/40 80/110/40 79/108/40
o GoldFoilCube
v -2.480460 4.102046 -2.369746
v -2.480460 0.027971 -2.369746
v -1.467432 4.102046 -0.645282
v -1.467432 0.027971 -0.645282
v -4.204924 4.102046 -1.356718
v -4.204924 0.027971 -1.356718
v -3.191895 4.102046 0.367746
v -3.191895 0.027971 0.367746
vn -0.0000 1.0000 -0.0000
vn 0.5065 -0.0000 0.8622
vn -0.8622 -0.0000 0.5065
vn -0.0000 -1.0000 -0.0000
vn 0.8622 -0.0000 -0.5065
vn -0.5065 -0.0000 -0.8622
vt 0.875000 0.500000
vt 0.625000 0.750000
vt 0.625000 0.500000
vt 0.375000 1.000000
vt 0.375000 0.750000
vt 0.625000 0.000000
vt 0.375000 0.250000
vt 0.375000 0.000000
vt 0.375000 0.500000
vt 0.125000 0.750000
vt 0.125000 0.500000
vt 0.625000 0.250000
vt 0.875000 0.750000
vt 0.625000 1.000000
s 0
usemtl GoldFoil
f 85/111/41 83/112/41 81/113/41
f 83/112/42 88/114/42 84/115/42
f 87/116/43 86/117/43 88/118/43
f 82/119/44 88/120/44 86/121/44
f 81/113/45 84/115/45 82/119/45
f 85/122/46 82/119/46 86/117/46
f 85/111/41 87/123/41 83/112/41
f 83/112/42 87/124/42 88/114/42
f 87/116/43 85/122/43 86/117/43
f 82/119/44 84/115/44 88/120/44
f 81/113/45 83/112/45 84/115/45
f 85/122/46 81/113/46 82/119/46
o RightWall
v 15.000000 0.000000 5.000000
v 15.000000 10.000000 4.999998
v 15.000000 -0.000000 -5.000000
v 15.000000 10.000000 -5.000002
vn -1.0000 -0.0000 -0.0000
vt 1.000000 0.000000
vt 0.000000 1.000000
vt 0.000000 0.000000
vt 1.000000 1.000000
s 0
usemtl Plaster
f 90/125/47 91/126/47 89/127/47
f 90/125/47 92/128/47 91/126/47
o Light.003
v 10.556857 3.390978 1.189804
v 11.228837 3.390978 1.189804
v 10.556857 3.390978 0.517825
v 11.228837 3.390978 0.517825
vn -0.0000 1.0000 -0.0000
vt 1.000000 0.000000
vt 0.000000 1.000000
vt 0.000000 0.000000
vt 1.000000 1.000000
s 0
usemtl Light
f 94/129/48 95/130/48 93/131/48
f 94/129/48 96/132/48 95/130/48
o Light.004
v 7.794773 4.118065 -0.114678
v 8.466752 4.118065 -0.114678
v 7.794773 4.790044 -0.114678
v 8.466752 4.790044 -0.114678
vn -0.0000 -0.0000 1.0000
vt 1.000000 0.000000
vt 0.000000 1.000000
vt 0.000000 0.000000
vt 1.000000 1.000000
s 0
usemtl Light
f 98/133/49 99/134/49 97/135/49
f 98/133/49 100/136/49 99/134/49
o Light.005
v 10.510111 4.118065 -0.109036
v 11.182091 4.118065 -0.109036
v 10.510111 4.790044 -0.109036
v 11.182091 4.790044 -0.109036
vn -0.0000 -0.0000 1.0000
vt 1.000000 0.000000
vt 0.000000 1.000000
vt 0.000000 0.000000
vt 1.000000 1.000000
s 0
usemtl Light
f 102/137/50 103/138/50 101/139/50
f 102/137/50 104/140/50 103/138/50
o Light.006
v 10.601992 4.118065 1.979697
v 11.273972 4.118065 1.979697
v 10.601992 4.790044 1.979697
v 11.273972 4.790044 1.979697
vn -0.0000 -0.0000 1.0000
vt 1.000000 0.000000
vt 0.000000 1.000000
vt 0.000000 0.000000
vt 1.000000 1.000000
s 0
usemtl Light
f 106/141/51 107/142/51 105/143/51
f 106/141/51 108/144/51 107/142/51
o Light.007
v 9.096174 4.118065 1.979697
v 9.768154 4.118065 1.979697
v 9.096174 4.790044 1.979697
v 9.768154 4.790044 1.979697
vn -0.0000 -0.0000 1.0000
vt 1.000000 0.000000
vt 0.000000 1.000000
vt 0.000000 0.000000
vt 1.000000 1.000000
s 0
usemtl Light
f 110/145/52 111/146/52 109/147/52
f 110/145/52 112/148/52 111/146/52
o Light.008
v 7.558778 4.118065 1.979697
v 8.230758 4.118065 1.979697
v 7.558778 4.790044 1.979697
v 8.230758 4.790044 1.979697
vn -0.0000 -0.0000 1.0000
vt 1.000000 0.000000
vt 0.000000 1.000000
vt 0.000000 0.000000
vt 1.000000 1.000000
s 0
usemtl Light
f 114/149/53 115/150/53 113/151/53
f 114/149/53 116/152/53 115/150/53
o Light.009
v 11.493773 8.846822 2.315687
v 12.165752 8.846822 2.315687
v 11.493773 8.846822 1.643708
v 12.165752 8.846822 1.643708
vn -0.0000 1.0000 -0.0000
vt 1.000000 0.000000
vt 0.000000 1.000000
vt 0.000000 0.000000
vt 1.000000 1.000000
s 0
usemtl Light
f 118/153/54 119/154/54 117/155/54
f 118/153/54 120/156/54 119/154/54
