# Blender 3.6.4
# www.blender.org
mtllib cornellbox.mtl
o BackWall
v -5.000000 -0.000000 -5.000000
v 5.000000 -0.000000 -5.000000
v -5.000000 10.000000 -5.000001
v 5.000000 10.000000 -5.000001
vn -0.0000 -0.0000 1.0000
vt 1.000000 0.000000
vt 0.000000 1.000000
vt 0.000000 0.000000
vt 1.000000 1.000000
s 0
usemtl Plaster
f 2/1/1 3/2/1 1/3/1
f 2/1/1 4/4/1 3/2/1
o BlueCube
v 1.000000 2.037627 -1.001000
v 1.000000 0.037627 -1.001000
v 1.000000 2.037627 0.999000
v 1.000000 0.037627 0.999000
v -1.000000 2.037627 -1.001000
v -1.000000 0.037627 -1.001000
v -1.000000 2.037627 0.999000
v -1.000000 0.037627 0.999000
vn -0.0000 1.0000 -0.0000
vn -0.0000 -0.0000 1.0000
vn -1.0000 -0.0000 -0.0000
vn -0.0000 -1.0000 -0.0000
vn 1.0000 -0.0000 -0.0000
vn -0.0000 -0.0000 -1.0000
vt 0.875000 0.500000
vt 0.625000 0.750000
vt 0.625000 0.500000
vt 0.375000 1.000000
vt 0.375000 0.750000
vt 0.625000 0.000000
vt 0.375000 0.250000
vt 0.375000 0.000000
vt 0.375000 0.500000
vt 0.125000 0.750000
vt 0.125000 0.500000
vt 0.625000 0.250000
vt 0.875000 0.750000
vt 0.625000 1.000000
s 0
usemtl Metal
f 9/5/2 7/6/2 5/7/2
f 7/6/3 12/8/3 8/9/3
f 11/10/4 10/11/4 12/12/4
f 6/13/5 12/14/5 10/15/5
f 5/7/6 8/9/6 6/13/6
f 9/16/7 6/13/7 10/11/7
f 9/5/2 11/17/2 7/6/2
f 7/6/3 11/18/3 12/8/3
f 11/10/4 9/16/4 10/11/4
f 6/13/5 8/9/5 12/14/5
f 5/7/6 7/6/6 8/9/6
f 9/16/7 5/7/7 6/13/7
o Ceiling
v -5.000000 10.000000 -5.000001
v 5.000000 10.000000 -5.000001
v -5.000000 10.000000 4.999999
v 5.000000 10.000000 4.999999
vn -0.0000 -1.0000 -0.0000
vt 1.000000 0.000000
vt 0.000000 1.000000
vt 0.000000 0.000000
vt 1.000000 1.000000
s 0
usemtl Ceiling
f 14/19/8 15/20/8 13/21/8
f 14/19/8 16/22/8 15/20/8
o Floor
v -5.000000 0.000000 5.000000
v 5.000000 0.000000 5.000000
v -5.000000 -0.000000 -5.000000
v 5.000000 -0.000000 -5.000000
vn -0.0000 1.0000 -0.0000
vt 1.000000 0.000000
vt 0.000000 1.000000
vt 0.000000 0.000000
vt 1.000000 1.000000
s 0
usemtl Floor
f 18/23/9 19/24/9 17/25/9
f 18/23/9 20/26/9 19/24/9
o GreenCube
v 4.016054 3.369739 -3.288880
v 4.016054 0.043373 -3.288880
v 3.362152 3.369739 -1.398797
v 3.362152 0.043373 -1.398797
v 2.125971 3.369739 -3.942781
v 2.125971 0.043373 -3.942781
v 1.472069 3.369739 -2.052699
v 1.472069 0.043373 -2.052699
vn -0.0000 1.0000 -0.0000
vn -0.3270 -0.0000 0.9450
vn -0.9450 -0.0000 -0.3270
vn -0.0000 -1.0000 -0.0000
vn 0.9450 -0.0000 0.3270
vn 0.3270 -0.0000 -0.9450
vt 0.875000 0.500000
vt 0.625000 0.750000
vt 0.625000 0.500000
vt 0.375000 1.000000
vt 0.375000 0.750000
vt 0.625000 0.000000
vt 0.375000 0.250000
vt 0.375000 0.000000
vt 0.375000 0.500000
vt 0.125000 0.750000
vt 0.125000 0.500000
vt 0.625000 0.250000
vt 0.875000 0.750000
vt 0.625000 1.000000
s 0
usemtl Metal
f 25/27/10 23/28/10 21/29/10
f 23/28/11 28/30/11 24/31/11
f 27/32/12 26/33/12 28/34/12
f 22/35/13 28/36/13 26/37/13
f 21/29/14 24/31/14 22/35/14
f 25/38/15 22/35/15 26/33/15
f 25/27/10 27/39/10 23/28/10
f 23/28/11 27/40/11 28/30/11
f 27/32/12 25/38/12 26/33/12
f 22/35/13 24/31/13 28/36/13
f 21/29/14 23/28/14 24/31/14
f 25/38/15 21/29/15 22/35/15
o LeftWall
v -5.000000 10.000000 4.999999
v -5.000000 0.000000 5.000000
v -5.000000 10.000000 -5.000001
v -5.000000 -0.000000 -5.000000
vn 1.0000 -0.0000 -0.0000
vt 1.000000 0.000000
vt 0.000000 1.000000
vt 0.000000 0.000000
vt 1.000000 1.000000
s 0
usemtl Plaster
f 30/41/16 31/42/16 29/43/16
f 30/41/16 32/44/16 31/42/16
o RedCube
v -2.480460 4.102046 -1.369746
v -2.480460 0.027971 -1.369746
v -1.467432 4.102046 0.354718
v -1.467432 0.027971 0.354718
v -4.204924 4.102046 -0.356718
v -4.204924 0.027971 -0.356718
v -3.191895 4.102046 1.367746
v -3.191895 0.027971 1.367746
vn -0.0000 1.0000 -0.0000
vn 0.5065 -0.0000 0.8622
vn -0.8622 -0.0000 0.5065
vn -0.0000 -1.0000 -0.0000
vn 0.8622 -0.0000 -0.5065
vn -0.5065 -0.0000 -0.8622
vt 0.875000 0.500000
vt 0.625000 0.750000
vt 0.625000 0.500000
vt 0.375000 1.000000
vt 0.375000 0.750000
vt 0.625000 0.000000
vt 0.375000 0.250000
vt 0.375000 0.000000
vt 0.375000 0.500000
vt 0.125000 0.750000
vt 0.125000 0.500000
vt 0.625000 0.250000
vt 0.875000 0.750000
vt 0.625000 1.000000
s 0
usemtl Metal
f 37/45/17 35/46/17 33/47/17
f 35/46/18 40/48/18 36/49/18
f 39/50/19 38/51/19 40/52/19
f 34/53/20 40/54/20 38/55/20
f 33/47/21 36/49/21 34/53/21
f 37/56/22 34/53/22 38/51/22
f 37/45/17 39/57/17 35/46/17
f 35/46/18 39/58/18 40/48/18
f 39/50/19 37/56/19 38/51/19
f 34/53/20 36/49/20 40/54/20
f 33/47/21 35/46/21 36/49/21
f 37/56/22 33/47/22 34/53/22
o RightWall
v 5.000000 0.000000 5.000000
v 5.000000 10.000000 4.999999
v 5.000000 -0.000000 -5.000000
v 5.000000 10.000000 -5.000001
vn -1.0000 -0.0000 -0.0000
vt 1.000000 0.000000
vt 0.000000 1.000000
vt 0.000000 0.000000
vt 1.000000 1.000000
s 0
usemtl Plaster
f 42/59/23 43/60/23 41/61/23
f 42/59/23 44/62/23 43/60/23
o Light
v 4.988492 2.886683 1.000000
v 4.988492 0.886683 1.000000
v 4.988492 2.886683 -1.000000
v 4.988492 0.886683 -1.000000
vn 1.0000 -0.0000 -0.0000
vt 1.000000 0.000000
vt 0.000000 1.000000
vt 0.000000 0.000000
vt 1.000000 1.000000
s 0
usemtl Light
f 46/63/24 47/64/24 45/65/24
f 46/63/24 48/66/24 47/64/24
