# Blender 4.0.0
# www.blender.org
mtllib GIBox.mtl
o Ceiling
v -5.000000 4.000000 2.000000
v 5.000000 4.000000 2.000000
v -5.000000 4.000000 -2.000000
v 5.000000 4.000000 -2.000000
vn -0.0000 1.0000 -0.0000
vt 1.000000 0.000000
vt 0.000000 1.000000
vt 0.000000 0.000000
vt 1.000000 1.000000
s 0
usemtl Ceiling
f 2/1/1 3/2/1 1/3/1
f 2/1/1 4/4/1 3/2/1
o BackWall
v -5.000000 0.000000 -2.000000
v 5.000000 0.000000 -2.000000
v -5.000000 4.000000 -2.000000
v 5.000000 4.000000 -2.000000
vn -0.0000 -0.0000 1.0000
vt 1.000000 0.000000
vt 0.000000 1.000000
vt 0.000000 0.000000
vt 1.000000 1.000000
s 0
usemtl Plaster
f 6/5/2 7/6/2 5/7/2
f 6/5/2 8/8/2 7/6/2
o FrontWall
v -5.000000 0.000000 2.000000
v 5.000000 0.000000 2.000000
v -5.000000 4.000000 2.000000
v 5.000000 4.000000 2.000000
v 2.000272 0.000000 2.000000
v 2.000272 4.000000 2.000000
v 3.050257 0.000000 2.000000
v 3.050257 4.000000 2.000000
v -5.000000 2.837522 2.000000
v 5.000000 2.837522 2.000000
v 2.000272 2.837522 2.000000
v 3.050257 2.837522 2.000000
v -5.000000 1.418761 2.000000
v 5.000000 1.418761 2.000000
v 2.000272 1.418761 2.000000
v 3.050257 1.418761 2.000000
vn -0.0000 -0.0000 1.0000
vt 1.000000 0.709381
vt 0.805026 1.000000
vt 0.805026 0.709381
vt 0.700027 0.709381
vt 0.000000 1.000000
vt 0.000000 0.709380
vt 0.700027 1.000000
vt 0.700027 0.354690
vt 0.000000 0.354690
vt 1.000000 0.354690
vt 0.805026 0.354690
vt 1.000000 0.000000
vt 0.805026 0.000000
vt 0.700027 0.000000
vt 0.000000 0.000000
vt 1.000000 1.000000
s 0
usemtl Plaster
f 18/9/3 16/10/3 20/11/3
f 19/12/3 11/13/3 17/14/3
f 20/11/3 14/15/3 19/12/3
f 23/16/3 17/14/3 21/17/3
f 22/18/3 20/11/3 24/19/3
f 10/20/3 24/19/3 15/21/3
f 13/22/3 21/17/3 9/23/3
f 15/21/3 23/16/3 13/22/3
f 18/9/3 12/24/3 16/10/3
f 19/12/3 14/15/3 11/13/3
f 20/11/3 16/10/3 14/15/3
f 23/16/3 19/12/3 17/14/3
f 22/18/3 18/9/3 20/11/3
f 10/20/3 22/18/3 24/19/3
f 13/22/3 23/16/3 21/17/3
f 15/21/3 24/19/3 23/16/3
o LeftWall
v -5.000000 0.000000 2.000000
v -5.000000 0.000000 -2.000000
v -5.000000 4.000000 2.000000
v -5.000000 4.000000 -2.000000
vn 1.0000 -0.0000 -0.0000
vt 1.000000 0.000000
vt 0.000000 1.000000
vt 0.000000 0.000000
vt 1.000000 1.000000
s 0
usemtl Plaster
f 26/25/4 27/26/4 25/27/4
f 26/25/4 28/28/4 27/26/4
o RightWall
v 5.000000 0.000000 2.000000
v 5.000000 0.000000 -2.000000
v 5.000000 4.000000 2.000000
v 5.000000 4.000000 -2.000000
vn 1.0000 -0.0000 -0.0000
vt 1.000000 0.000000
vt 0.000000 1.000000
vt 0.000000 0.000000
vt 1.000000 1.000000
s 0
usemtl Plaster
f 30/29/5 31/30/5 29/31/5
f 30/29/5 32/32/5 31/30/5
o Floor
v -5.000000 0.000000 2.000000
v 5.000000 0.000000 2.000000
v -5.000000 0.000000 -2.000000
v 5.000000 0.000000 -2.000000
vn -0.0000 1.0000 -0.0000
vt 1.000000 0.000000
vt 0.000000 1.000000
vt 0.000000 0.000000
vt 1.000000 1.000000
s 0
usemtl Floor
f 34/33/6 35/34/6 33/35/6
f 34/33/6 36/36/6 35/34/6
o Plane
v -3.000000 6.000000 10.000000
v 7.000000 6.000000 10.000000
v -3.000000 6.000000 0.000000
v 7.000000 6.000000 0.000000
vn -0.0000 1.0000 -0.0000
vt 1.000000 0.000000
vt 0.000000 1.000000
vt 0.000000 0.000000
vt 1.000000 1.000000
s 0
usemtl Light
f 38/37/7 39/38/7 37/39/7
f 38/37/7 40/40/7 39/38/7
